<svg width="58" height="120" viewBox="0 0 58 120" fill="none" xmlns="http://www.w3.org/2000/svg">
<g clip-path="url(#clip0_112_1752)">
<path d="M40.4724 17.0324C41.109 17.4189 41.7455 17.5156 42.3086 17.1773C42.2841 16.9357 42.0883 16.67 42.0638 16.4767C41.721 16.3801 41.5252 16.0902 41.4517 15.7519C40.9866 15.5345 40.1786 15.003 40.0562 14.4473C39.689 14.2299 39.2972 14.1332 38.8076 14.0366C38.881 14.858 38.9055 15.7278 39.4196 16.4284L40.4479 17.0565L40.4724 17.0324ZM44.9773 12.5629C45.418 12.6837 45.9321 12.6354 46.3973 12.6595C46.3728 12.5629 46.3973 12.4662 46.3973 12.3938V11.9106C46.3483 11.7898 46.2749 11.524 46.1524 11.4515C45.7362 11.2099 45.2955 10.9925 45.1731 10.5093H44.9773C44.6835 10.4852 44.4386 10.3402 44.4386 10.0503C44.3897 10.0503 44.2917 10.0744 44.2428 10.0503L43.2145 9.71206C43.141 10.7992 43.4348 11.7415 44.2428 12.4421C44.5611 12.3213 44.7814 12.4904 45.0262 12.5629H44.9773ZM52.9097 29.861C51.3183 28.8463 49.9473 27.3968 47.9642 26.8411L44.0224 26.672C42.1372 26.5754 39.64 26.7203 37.6324 27.0344C37.2407 26.3821 36.8 25.7539 36.5552 24.9567C36.5062 24.546 37.4121 23.8695 38.0731 24.1594C37.5834 24.8117 37.2407 25.1258 37.6814 25.6815C37.9752 26.0438 38.7831 26.6237 39.0769 25.8747C39.2728 25.3191 38.6607 24.2802 38.979 23.7245C39.1014 23.4829 39.4441 23.5554 39.5421 23.6037C40.0807 23.8695 39.1503 25.0533 40.2031 25.609C40.5948 25.8264 41.8924 26.068 41.7945 25.3432L40.6438 23.6037C40.399 23.2172 41.6721 22.9273 41.8679 23.3138C42.4555 24.6184 43.4593 25.3191 43.8511 25.2466C44.0714 25.1983 44.4876 24.8842 44.4386 24.6184C44.2917 23.8695 43.7286 23.5071 43.1411 22.879C43.7776 22.589 44.3162 22.5166 44.9773 22.4199C45.1486 23.0481 45.0507 23.4588 45.0507 24.0869C45.5159 24.5943 46.5442 25.2224 47.2297 24.9084C48.209 24.4735 45.9566 23.3621 46.2504 22.5166C46.74 22.275 47.8662 22.3958 48.1356 22.9273C48.2335 23.1447 47.8907 23.7245 47.9397 23.942C48.1111 24.546 49.9718 25.5123 50.1921 24.7392C50.3635 24.1594 49.5556 23.4346 49.2128 22.8306C50.0697 22.275 50.9021 23.0239 51.5876 23.5796C51.9059 23.5796 52.1018 22.9514 51.9304 22.6615C51.6366 22.6615 51.4408 22.3233 51.2449 22.2267C50.9511 22.0575 50.1432 21.9367 50.0942 21.4777C50.1187 20.9945 50.9021 20.7529 51.2449 20.7771L51.4652 20.5113C51.4652 20.2214 51.6611 20.004 51.9794 20.0281L51.7835 19.3758C51.098 19.2309 50.4614 19.5691 49.8249 19.5691H49.0904L47.7194 20.2697L49.2373 21.2844C48.5028 21.5502 47.8907 21.4536 47.1318 21.4052L47.6949 18.8202C47.5235 18.6994 47.1562 18.6994 46.9604 18.6511C46.9604 18.7477 46.9604 18.8685 46.8869 18.941C46.789 19.0859 46.6176 19.1342 46.4462 19.1342C46.4462 19.3275 46.128 19.4725 46.0056 19.6174C45.8587 20.0523 45.1486 20.2939 44.8059 20.608C45.0752 20.8737 45.1486 21.1636 45.0507 21.3328C44.8304 21.671 44.6835 21.4052 44.5121 21.3569C44.2428 21.2844 43.7531 21.526 43.5328 21.1395L44.4386 19.3034C44.5611 19.0618 44.3897 18.8202 44.2673 18.7477C44.0959 18.6511 43.7042 18.6994 43.5573 18.6027L41.4272 20.3422C41.4272 20.5838 41.4272 21.1395 41.2069 21.2844C40.9866 21.4294 40.6683 21.3328 40.4234 21.3811L39.9093 21.4777C38.6852 22.4924 35.5514 23.0964 35.6982 23.1447C35.5024 23.0722 35.5514 22.4441 35.5024 22.2508L33.5682 20.7288C34.4007 19.255 36.041 16.9357 36.4083 16.8874C36.9958 16.8391 36.751 17.4189 36.8245 17.6122C37.2407 18.6752 38.3669 19.3275 39.6645 19.1101C39.4196 17.8055 37.9262 17.3706 37.5345 16.1626C37.2407 15.2204 38.2934 14.3024 38.9055 14.0124C39.1503 13.8433 39.0769 13.191 39.689 13.3118C39.6645 13.0944 39.8848 12.9977 39.9338 12.9011C40.4479 11.9589 41.4028 11.3549 42.0393 10.461C42.4066 9.95365 42.9207 9.85701 43.239 9.71206C43.4348 9.18055 43.7531 9.01143 44.2917 8.76984C44.7814 8.5524 45.2221 7.73098 46.0056 7.87594C46.0056 7.6585 46.2259 7.51355 46.3728 7.39275C46.5687 7.22363 46.2014 6.98204 46.03 6.95788H45.5649C45.5404 7.29611 45.2955 7.34443 45.0262 7.41691L44.2917 7.63435C44.1938 7.9001 43.9979 8.06922 43.6552 8.21417C42.1862 8.9148 40.8397 9.8087 39.7134 10.9925L36.7755 14.0608L33.9355 17.5639L33.7396 15.8002C33.7151 15.5103 33.9844 15.0996 34.1558 14.9547C34.3272 14.8097 34.7924 15.0755 35.0127 14.9547C35.6003 14.6647 35.9186 13.8433 35.7227 13.3118C35.1107 13.5534 34.6944 13.3843 34.5965 13.0461C34.5231 12.8045 34.6455 12.273 35.1107 12.4662C35.4534 12.6112 35.7717 12.9977 36.1879 12.9253C36.8979 12.8045 38.3179 11.8139 37.7793 11.5965C36.9224 11.2341 36.0165 11.5482 35.1596 11.4999C35.1596 10.92 35.4045 10.5576 35.8696 10.1952C37.3386 11.3307 38.1465 10.1952 39.7869 9.63958C39.6155 9.15639 39.4686 8.86648 39.4686 8.47993L40.6438 8.14169C40.8397 7.6585 41.1334 7.22363 40.9866 6.59549C38.0976 6.81292 36.9224 6.30557 38.2445 5.55663C38.6362 5.3392 38.9545 5.65327 39.3952 5.82239C40.2521 6.13646 42.0393 4.68689 41.5252 3.84131C41.1824 3.28564 39.8603 4.2037 38.8565 3.74467C39.1503 3.38228 39.3952 3.45476 39.4686 3.4306C39.6645 3.4306 39.7624 3.23732 39.6155 3.09237C39.1503 2.60918 37.8283 3.52724 36.6531 3.45476C36.6041 3.72051 36.3348 3.88963 36.09 3.88963C35.4534 3.88963 35.331 4.49362 35.0372 4.73521C34.7679 5.55663 35.2576 6.30558 35.9431 6.95788C35.5514 7.41691 35.0617 7.17532 34.6944 7.19947C34.4496 7.19947 34.1313 7.44107 33.8865 7.46523C33.862 7.6585 33.5927 7.70682 33.4213 7.70682L33.3479 8.9148C33.8131 9.18055 34.0334 9.73622 34.1313 10.2194C33.4213 10.4368 32.8093 10.7992 32.4665 11.3066C32.0503 11.9347 32.7848 12.6837 32.8093 13.1669C32.8337 14.5681 31.5851 15.3171 31.1199 16.4042L29.4306 20.2456C28.892 21.4536 28.941 22.8306 28.0106 24.0869C27.4965 21.6951 28.1575 19.4966 28.8186 17.2498C29.6265 14.4715 29.9692 11.8622 29.7979 9.10807C29.6755 7.24779 29.3817 5.26672 27.8392 4.03459L26.9579 4.37282H25.5378L25.4644 5.0976L26.003 6.03982C26.5906 6.35389 27.3006 5.62911 27.8392 5.53247C28.4513 5.89486 28.5737 7.0062 28.182 7.61019C27.6189 6.8854 27.1782 6.61965 26.5172 6.71629V7.46523C27.0313 7.61019 27.0313 8.16585 27.0803 8.62488C27.1537 9.10807 26.811 9.49462 26.1989 9.88117C26.5172 10.4127 27.0068 10.461 27.472 10.7509L26.5906 12.5146C26.9823 12.8045 27.3496 13.0702 27.3985 13.4568C27.472 13.4568 27.5699 13.4568 27.6679 13.4568C27.9617 13.3843 28.182 13.5051 28.1575 13.8192C28.1575 14.0608 28.0351 14.2299 27.9372 14.4232C27.8392 14.5923 27.9127 14.9305 27.9127 15.0996C27.9127 15.9935 26.2234 15.6553 26.4437 16.8149C26.713 16.8874 26.8844 17.2498 26.9334 17.4672C27.7413 17.4431 27.0803 18.4578 26.7375 19.8832C26.4927 20.8979 26.5172 21.9851 26.5172 23.0239V26.4062C25.8806 26.3579 25.6113 25.8506 25.4154 25.3915C24.2892 22.5407 22.6244 20.1006 20.2985 18.0471C19.9557 17.733 19.7599 17.2981 19.5885 17.0565C18.7316 16.4284 17.6788 15.5345 16.9933 14.7131C16.675 14.7131 16.4547 14.4956 16.4547 14.1816C15.8916 14.0849 15.4509 13.6259 15.0347 13.2877C14.8633 13.1427 14.4961 13.1427 14.4961 12.7803L11.4602 11.5723C11.1909 11.4757 10.9216 11.4757 10.8236 11.1616L7.07773 9.95365L2.15667 9.73622C1.91184 9.73622 1.61805 9.85701 1.5446 10.0261C1.27529 10.8959 2.94012 10.2919 4.94772 11.0167L7.20015 11.1858L10.9215 12.8045C12.415 13.4568 13.4433 15.003 14.9612 15.6553C15.9161 16.066 16.4302 16.6941 17.1402 17.3706C18.193 18.3611 19.2947 19.1342 20.2006 20.1489L21.4737 21.5502C22.8447 23.6521 24.1178 25.8264 24.9258 28.2907C25.0972 28.7739 25.6847 28.9913 25.8316 29.2571H27.1047L27.8882 28.7739C28.3534 28.0249 28.1575 27.0344 28.4268 26.1888C28.6472 25.4882 29.1613 25.005 29.3082 24.1836C29.602 22.6132 30.8996 21.3086 31.6586 19.6416C31.781 19.3758 32.3686 19.0859 32.7603 19.2309L31.071 22.4441L28.843 28.5081C28.6961 28.9188 28.5248 29.402 28.5982 29.9577C29.0879 30.006 29.4551 29.7886 29.7734 29.7402C29.8224 29.5228 30.1161 29.5711 30.2875 29.5711H30.973C31.022 29.2571 31.3158 29.3054 31.4627 29.2329C31.8544 28.9913 32.6624 29.1604 33.0541 29.0155C34.1803 28.5564 35.1596 28.6289 35.3555 28.943C35.4534 29.1121 35.3555 29.5953 35.0862 29.5953H33.3724C32.8582 29.547 31.7075 29.7644 31.5606 30.2476C31.2913 31.1657 32.5155 31.4072 33.0051 31.528L35.1351 32.1079C35.38 32.1804 35.6982 32.6877 35.9431 32.6635C36.2614 32.6394 36.5552 32.3495 36.6531 32.0837C37.51 33.2675 37.2407 33.9923 37.8527 33.8232C37.9996 33.7749 38.1465 33.7024 38.2934 33.6058C38.7341 32.2528 37.8283 30.6341 38.7586 29.547C38.5872 29.2571 38.2934 29.0879 37.9996 29.1846L36.8245 29.6194C36.5307 29.0638 36.8245 28.7739 37.1427 28.7739C37.4365 28.7739 37.7303 28.7014 37.9996 28.7255C38.7096 28.7497 39.4441 28.7497 40.1541 28.5564C40.2276 28.3632 40.4724 28.3632 40.6683 28.3632L42.8228 28.3148C43.3124 28.3148 43.6797 28.484 44.0714 28.5081L47.1807 28.7497C49.0169 28.8947 50.4859 29.3295 51.5142 31.0207C52.0283 31.214 52.7139 31.5522 52.7628 32.132C53.5708 32.4219 54.0359 33.2192 54.6235 33.8957C55.1132 34.4513 55.7987 34.8137 55.9211 35.466C55.9211 35.5385 55.9211 35.6835 55.9211 35.7559C56.0925 35.7076 56.2639 35.7801 56.3618 35.9251C56.4597 36.07 56.4353 36.3116 56.4597 36.4324C57.0229 36.6498 57.0718 37.3263 57.5125 37.8578C57.6104 37.9786 58.1736 37.8578 58.1246 37.6404C57.3411 34.5721 55.6028 31.673 53.0321 30.0543L52.9097 29.861ZM37.0693 7.17532C37.5589 7.51355 38.4893 8.06921 38.0976 8.5524C37.7303 9.03559 36.8 9.08391 36.2124 9.08391L37.0693 7.17532ZM33.4703 17.9021L33.5927 18.0229L33.4703 18.1437L33.3479 18.0229L33.4703 17.9021ZM32.1237 17.7813C32.0503 17.5639 32.1727 17.3464 32.4665 17.4672C32.6624 17.5397 33.2744 18.2403 33.2744 18.4819C33.2744 18.6511 33.0296 18.9168 32.7848 18.8927C32.7848 18.8927 32.3196 18.2645 32.1237 17.7572V17.7813ZM31.9279 25.3674C31.7075 24.7876 32.0013 24.4735 32.2951 24.4252C32.6624 24.3527 33.0541 24.2077 33.4213 24.6184L31.9034 25.3674H31.9279ZM32.8827 22.3233C33.7151 22.8306 34.2782 23.2897 35.4045 23.193C35.1107 23.7487 34.67 24.0145 34.2293 24.0628C33.5193 24.1353 32.5644 23.2414 32.8827 22.3475V22.3233ZM35.4779 27.1069C34.8169 26.5995 35.1596 25.8747 34.2293 25.6815L35.5758 24.9567C35.6003 26.4787 36.3838 27.8075 35.4779 27.1069ZM48.9925 44.1876C48.1845 43.0763 47.7438 41.3126 46.3728 40.6603C45.369 40.1771 44.9038 39.5248 44.0959 38.8242C43.2145 38.0511 41.8679 37.6404 40.8641 37.0122C38.7586 35.6835 36.7265 34.4755 34.572 33.4366C34.3762 33.34 34.0334 33.3883 34.0089 33.0018L33.6172 32.9535C33.3479 32.9293 33.0786 32.8085 33.0296 32.5186C32.3686 32.5669 31.781 32.1804 31.1689 32.0112L30.4099 31.7938H28.2554L27.7413 32.0112L26.7865 32.4944C26.7375 32.6635 26.7865 33.0259 27.0803 33.1226C29.0144 33.8232 30.6303 35.0553 31.4627 36.8431C30.7282 37.3263 30.5813 37.882 30.2141 38.6068C29.7979 38.0753 29.8224 37.6162 29.553 37.4954C29.0634 37.278 28.7451 37.737 28.3044 37.882C27.9617 37.9786 27.3985 37.278 26.811 37.6404C27.0313 39.0175 26.5416 40.5637 26.5661 41.9891C26.5661 44.0185 26.3213 45.8063 26.1254 47.739C25.9541 49.5268 26.003 51.0972 25.4399 52.8608C25.1951 53.6823 25.244 54.9144 25.1951 55.8083C25.1461 57.0163 25.8316 58.2242 25.0727 59.2389V61.3408C25.1216 61.5099 25.3665 61.7515 25.342 62.0656C25.1461 64.2399 25.4399 66.3418 25.4154 68.5403C25.3909 70.763 25.293 72.889 25.3175 74.9909V77.8417C25.6603 78.2766 25.6113 78.8564 25.3665 79.2913L25.3175 80.2335C25.5623 80.4268 25.5378 80.7167 25.5378 80.9824V82.1421C25.8806 82.2871 25.7582 82.6736 25.8072 82.8669C26.1254 83.9541 25.8561 85.1137 26.1009 86.1767C26.2478 86.8049 26.2478 87.433 26.2723 88.1336L26.3458 90.5013C26.4192 92.8689 26.7865 96.2271 27.1292 98.643L27.5944 101.784L28.0351 104.2C28.4513 106.447 28.9165 108.621 30.0917 110.626C30.3855 110.747 30.7282 110.384 30.5813 110.119C29.6265 108.5 29.553 106.809 29.3817 105.021L29.0144 101.252L28.5248 96.9518L28.0106 92.2166C27.7658 89.9214 27.7168 87.7712 27.5944 85.4278L27.3496 80.8858L27.1047 75.8848C27.0313 74.242 26.762 72.7441 27.1537 71.1012C27.3985 70.0865 26.9579 68.9994 26.9579 68.0088L26.8844 59.8912C26.8844 58.949 27.1047 58.1276 27.1292 57.2337L27.3251 48.2947C27.3741 45.9029 27.9127 43.7286 27.521 41.3609L27.6923 39.549C28.4513 39.6939 29.0879 39.549 29.602 38.9208C30.4099 39.4765 29.7244 40.1046 29.7979 40.5878L30.0672 42.7863C30.1406 43.4145 30.6303 43.9218 31.2668 43.946C31.4872 44.55 31.1444 45.3473 31.4382 45.8304C32.4175 46.4586 31.9524 47.739 32.4175 47.8598C32.7603 47.9565 33.0541 47.6666 33.5927 47.3766C32.9317 48.5846 33.4703 49.406 33.9844 50.3724C33.862 50.9039 33.152 52.1602 33.8375 52.5951C34.4007 52.9575 35.1351 51.9428 35.3065 51.4596L36.4817 48.1497L37.6569 49.8892C36.751 50.1308 36.0655 50.6623 35.8451 51.4354C35.7962 52.2327 36.2369 52.7642 36.7265 53.2232L38.269 53.1266C38.5383 53.1266 38.6362 52.6192 38.7096 52.4501C38.6852 52.3052 38.6607 52.1119 38.7096 51.9669C38.7831 51.4838 39.2972 51.363 39.7869 51.4354L39.591 50.0583C39.1014 49.6718 38.8321 49.1161 38.7831 48.3672C39.3952 48.3672 39.6155 48.7779 39.7624 49.1161H40.2766C40.4479 49.1644 40.6683 49.092 40.7172 48.947C40.7907 48.7537 40.7907 48.5605 40.7662 48.3672L38.0976 44.1393C37.7058 44.1876 37.2896 44.2359 37.0448 44.1151C36.8245 44.0185 36.7265 43.6561 36.8 43.3903C36.6776 43.3179 36.6776 43.2937 36.6531 43.2212C36.5796 43.0038 36.8489 42.8105 37.0203 42.883C37.1183 42.9313 37.1427 43.2212 37.2652 43.2695L38.2934 43.7769C38.3914 43.3179 38.3669 42.883 38.2934 42.424C38.171 42.3032 38.1465 42.0857 38.0976 41.9408C37.3876 41.1918 36.3838 40.2979 36.3593 39.0416C36.3593 38.7517 36.9958 38.6792 37.2407 38.7517C38.0241 38.9933 37.7793 40.8536 39.5176 40.7328L39.5665 39.2832C39.5665 38.8484 39.7379 38.3652 40.1541 38.3169C40.4724 38.2685 41.06 38.5101 41.2069 38.945C41.3293 39.3316 40.8152 39.6939 40.4724 39.9597C39.7134 40.5395 40.0072 41.6509 39.8848 42.4723C39.7869 43.1971 39.7379 43.8252 40.4234 44.091C40.5459 44.0668 40.7417 43.9702 40.7907 43.8252L41.9904 39.549C42.8473 39.7664 43.3369 40.3946 43.7286 40.9261C43.6062 41.6025 42.7493 41.7233 42.5045 42.0857C41.8924 43.0521 42.1128 44.091 42.2597 45.009C42.2597 45.6613 42.8228 46.072 43.5817 45.9754C43.4838 44.9849 43.8511 43.1971 44.4386 41.8925C45.1731 41.8441 45.7607 42.4481 45.9076 43.0038C46.0545 43.5836 45.4669 44.0426 45.0997 44.5258C44.3407 45.5647 44.61 46.9659 44.61 48.1256C44.61 48.2947 44.6835 48.488 44.61 48.6813C45.0017 48.8745 45.0262 49.3577 45.8342 49.4544C45.9566 47.5699 46.2504 45.7338 46.9604 43.9218C47.8173 44.55 48.0376 45.1298 48.6497 45.8304C47.9152 47.0867 46.8869 47.1109 46.8869 49.3577V51.3871C47.1807 51.4354 47.4011 51.677 47.3521 51.9669C47.6704 51.9669 48.258 51.9911 48.3314 51.5562L48.5763 49.6235C48.6742 48.8745 48.5763 48.029 49.4087 47.4008C49.629 47.8115 49.6535 48.5121 50.0207 48.8262C51.2694 49.8892 50.9756 51.7253 51.5876 51.9669C51.857 52.0636 52.1018 52.0153 52.2732 51.7978C52.4446 51.5804 52.1263 51.2422 52.1263 51.0489C52.0528 49.2128 50.2656 45.9271 48.968 44.1393L48.9925 44.1876ZM35.7717 36.0217C35.2576 36.5291 34.621 35.9492 34.3517 36.0459C33.911 36.2875 34.0334 36.6982 34.0334 36.8431C34.0334 37.0122 33.5927 37.1089 33.4458 36.9156L31.5117 34.2097C33.1031 34.1373 34.5476 34.9828 35.7472 35.9975L35.7717 36.0217ZM34.7434 45.468C34.2538 44.5983 35.2086 43.5353 34.4251 43.1729C34.3027 43.1246 33.911 43.2937 33.8865 43.487C33.7886 43.9943 32.8827 44.0426 32.9072 43.7527C33.0541 42.4481 33.6906 41.2643 33.152 40.008C32.9072 39.4282 32.3931 40.9986 32.0258 41.0952C31.8299 41.1435 31.4382 41.0952 31.4627 40.8536C31.5606 40.0805 31.6096 39.4765 31.8789 38.8242C31.9279 38.7034 31.8789 38.4376 31.8544 38.3169C31.7565 38.0994 31.9524 37.6404 32.1237 37.6887C32.7113 37.9303 32.9562 38.486 33.1275 38.9692C33.1765 39.1141 33.2989 39.3557 33.3969 39.404C33.9844 39.6698 35.331 42.8347 36.0165 44.5258C35.4534 44.7191 35.1841 44.9849 34.7679 45.4439L34.7434 45.468ZM36.751 47.6907C36.4817 47.7632 36.2614 47.5458 36.1145 47.5216C35.5514 47.425 35.5269 48.7054 34.9882 48.0289L35.992 45.6613C36.5307 46.2412 36.5552 46.821 36.751 47.6907ZM35.7717 37.5196C35.6982 37.2055 35.6982 36.9881 35.7717 36.7948C36.1879 36.6982 36.8245 36.4083 37.4365 36.8431C37.51 37.3988 36.2858 37.8337 35.7717 37.4954V37.5196ZM5.16807 21.8643C5.46186 21.8159 5.75566 21.8401 6.04945 21.9367C6.56359 22.1059 7.49394 22.0334 8.00808 22.3958C9.40361 23.4105 10.8236 23.8453 12.4885 24.256C12.9781 24.3768 13.4923 25.1499 14.1043 25.1741C13.5167 25.3915 13.0516 25.464 12.9291 25.7781C12.7333 26.213 12.8067 26.6237 12.8067 26.9861C12.8067 27.3485 12.9781 27.6625 13.3209 27.8558C13.4433 27.9283 13.6881 27.9041 13.8105 27.9041C13.9329 27.8316 14.0798 27.7109 14.2267 27.6625C14.1043 27.131 14.4226 26.7203 14.6919 26.1646C14.7409 26.0438 14.594 25.7056 14.6674 25.609C14.8633 25.2949 16.3078 25.8989 16.9443 26.6478C17.1892 26.7445 17.483 26.9377 17.7033 27.1069C17.8747 27.2518 18.2175 27.276 18.2664 27.6625C18.9764 28.0732 20.2495 28.9671 20.5678 29.7886C20.6413 29.8852 20.8861 29.9577 20.9595 30.0302C21.1799 30.2959 21.033 30.6341 20.6902 30.5858C20.5188 30.5858 20.2985 30.3684 20.1026 30.3442L18.8785 30.2959L16.9443 30.0302C16.3078 29.9335 15.7202 30.1026 15.1816 29.8369L13.3454 30.0785C12.7578 30.151 12.2436 30.3442 11.6071 30.2959L11.0929 30.2476L7.95912 32.277C7.76326 32.3978 7.66532 32.6877 7.24911 32.6152C7.07773 33.195 6.51463 33.5816 5.92704 33.6782C5.73117 33.8957 5.19255 33.9681 5.53531 34.5238C6.24532 33.944 7.15118 33.799 7.71429 33.6058C7.88567 33.4125 8.05705 33.0742 8.54671 32.9776C9.50154 32.7843 10.3095 32.1562 11.1909 31.818C11.8764 31.5522 12.6109 31.7938 13.2964 31.6972C17.5564 31.1898 21.3023 31.9146 25.293 33.2192C25.6603 33.4608 24.9013 34.0406 24.7299 34.2339C24.2892 34.7654 25.0972 35.5385 25.7092 35.4902C26.1989 35.466 27.0313 34.8379 26.6885 34.2581C26.4192 33.8232 26.2234 33.2192 26.003 32.9293L20.984 27.6867L19.3192 26.2613C19.0009 26.3096 18.7561 26.1163 18.7561 25.8023C18.4378 25.7539 18.1685 25.4157 17.8747 25.3432C17.5809 25.2707 17.3361 25.1983 17.2871 24.86H17.1402C16.8709 24.8359 16.6261 24.7151 16.5037 24.4493L13.7371 23.0239C13.4678 22.879 13.2719 22.9273 13.2474 22.5649C13.2474 22.275 13.4188 22.13 13.7371 22.2025C13.7371 21.7676 13.5167 21.5502 13.2964 21.2603C13.0026 21.3328 12.6843 21.2603 12.5374 21.0187C12.366 21.067 12.0233 21.0428 11.8274 21.0187C11.7295 21.212 11.5336 21.3086 11.3378 21.3086C11.2398 21.5743 10.9215 21.8159 10.6033 21.7918C10.4319 21.7918 10.236 21.7676 10.1381 21.5985C10.0891 21.5019 10.0891 21.3569 10.0646 21.2603V20.5355C9.79534 20.2456 9.55051 19.9073 9.40361 19.545C8.93843 18.9168 7.59188 18.9893 7.20015 19.4483C7.00429 19.6658 6.93084 19.9798 6.95532 20.3181C7.32256 20.5597 7.73877 20.4389 8.37533 20.7771C7.59188 21.3086 6.80842 20.922 6.24532 20.5355C5.976 20.6321 5.53531 20.5838 5.266 20.5355L3.62564 20.3422C3.62564 20.3422 1.29977 20.3422 0.222521 20.4147C0.0266578 20.4147 -0.0957567 20.8979 0.0511407 20.922C0.589765 20.9945 1.07942 21.0187 1.47115 21.2361C1.6915 21.3811 2.13219 21.4052 2.4015 21.4536C3.77254 21.671 4.9722 21.1878 5.14358 21.8884L5.16807 21.8643ZM19.5395 7.9001C19.9802 8.81816 20.5433 9.54294 20.8616 10.461C21.033 10.9442 21.5961 11.5723 21.5226 12.1763C21.5226 12.2971 21.6206 12.5629 21.5226 12.732C21.4247 12.8769 21.1799 12.9253 21.0085 12.7803C20.9106 12.6837 20.8126 12.5629 20.8126 12.3454C20.6413 12.3938 20.274 12.4179 20.1026 12.3454C19.9068 12.7803 19.6619 13.2152 19.2213 13.3843C19.1723 13.8916 19.3437 14.3507 19.8088 14.6164C20.6902 14.6164 21.3268 13.65 21.8654 13.8433C21.8164 13.8433 23.0406 16.4525 23.0406 16.4042L23.9465 20.5355C24.2402 21.8643 24.7789 23.0964 25.8806 23.9903L25.5868 21.9851L25.6358 20.7288C25.0972 20.7771 24.8768 19.255 25.1461 18.9651C25.293 18.8202 25.5623 18.9168 25.6603 19.1342H26.1989C26.4682 18.6752 26.5416 18.192 26.4437 17.6847C26.0275 17.8055 25.3909 18.0954 24.9992 17.6605C24.583 17.2015 24.632 16.5009 24.4851 16.0418L23.6771 13.3843C23.6037 13.1185 24.2647 13.0461 24.3137 13.2877C24.4606 14.3265 25.0237 14.8097 24.8034 15.5586C25.0482 15.6311 25.8072 15.6553 25.9051 15.3412C26.052 14.7372 25.9785 14.0608 26.1254 13.6259C26.1989 13.4085 26.2968 12.8528 26.052 12.7078C25.8561 12.6112 25.3909 12.9253 24.9013 12.9253C25.1951 11.4515 25.7827 10.1711 25.6358 8.62488C23.9709 8.9148 23.6527 10.2436 23.6527 11.7415C22.2082 10.1469 21.7675 8.28665 21.082 6.64381C21.1309 6.52301 21.2289 6.47469 21.3023 6.45053C21.7185 6.37805 22.0613 5.96734 22.0613 5.58079V4.88017C21.1554 4.42114 22.0858 3.47892 21.5226 2.89909C21.2533 2.60918 20.9351 2.82661 20.7637 3.26148C20.6902 3.45476 20.5678 3.57556 20.4944 3.62388C19.8088 4.05875 19.8088 2.51254 19.1478 0.966336C18.9764 1.13545 18.7316 1.20793 18.4623 1.25625C18.6581 2.02935 17.8747 2.56086 17.6299 3.28564C17.434 3.86547 18.2419 4.75937 18.5847 5.14592C19.3926 6.03982 19.2213 7.10284 19.6619 7.99674L19.5395 7.9001ZM20.9595 6.2331L20.7637 6.35389C20.7637 6.35389 20.7637 6.13646 20.9595 6.2331ZM13.4923 45.8304C13.4433 45.6372 13.3454 45.2989 13.2719 45.1298C12.0478 43.6078 14.0064 41.7475 12.6843 41.7475C12.2681 41.7475 12.1947 41.9649 11.8764 42.3273L11.0195 43.4145C11.3378 44.091 11.5336 44.6466 11.3378 45.3956C10.4319 45.1781 9.59947 45.6613 9.33016 46.5069C9.06085 47.3525 9.57499 48.2222 9.91775 48.9229C10.0646 49.2369 10.236 49.5268 10.6033 49.6476C10.7502 49.696 10.9705 49.6718 11.1174 49.6476C11.2153 49.6476 11.4112 49.5993 11.5091 49.6476C11.5581 49.3336 11.5581 49.0195 11.5091 48.7054C11.2643 48.3189 10.8971 47.739 11.0195 47.28C11.0929 46.9659 10.7502 46.1687 11.1909 45.9029C11.8029 45.5888 12.1457 46.6035 12.2681 47.0143C12.3905 47.135 12.7578 47.2558 12.7823 47.4733C12.9781 47.4733 13.174 47.5699 13.2719 47.7149C13.6147 47.8598 14.0064 47.6424 14.0798 47.2558C14.1288 47.0143 14.1043 46.676 13.9819 46.4103C13.6392 46.3378 13.5412 46.1204 13.4678 45.8304H13.4923ZM20.8616 117.536C19.0254 116.738 17.4585 117.415 17.0668 116.038C16.9688 115.675 16.6505 115.434 16.063 115.579C16.014 117.367 16.5526 119.783 17.5075 119.807C18.3154 119.807 19.2213 117.705 21.2533 119.348C21.6206 118.816 21.5716 117.826 20.8371 117.512L20.8616 117.536ZM32.5155 111.955C32.2706 112.027 32.0503 112.438 31.8299 112.535C30.9486 113.018 31.0465 113.525 30.8751 114.298C30.6793 115.192 30.4589 115.675 30.8751 116.569C31.1444 117.173 31.0955 118.623 32.2951 118.502C32.7848 118.309 32.5155 117.149 32.442 116.714C32.0748 114.322 34.4007 111.496 32.54 111.931L32.5155 111.955ZM27.7903 117.705C27.6189 117.584 27.5699 117.391 27.521 117.197C27.3496 116.352 26.8599 115.434 26.5416 114.685C26.1989 114.612 26.1254 114.395 26.052 114.105C25.9296 113.574 25.4644 112.849 25.1706 112.486C24.9503 112.486 24.7544 112.414 24.6565 112.221H23.8975L24.2892 113.501C24.583 114.395 24.5585 115.047 25.1461 115.7L25.0727 116.279C25.5378 116.424 25.9051 116.787 25.9296 117.246V117.656C26.2234 117.705 26.3458 117.922 26.3703 118.212V118.357C26.6641 118.405 26.8599 118.623 26.8599 118.913C26.9334 118.889 27.0313 118.913 27.1047 118.889L27.8637 118.695C27.7413 118.454 27.7903 118.019 27.8148 117.753L27.7903 117.705ZM46.8135 35.7559H47.3521C47.4256 35.611 47.6214 35.3694 47.7683 35.3211C47.7928 34.7413 47.6949 34.1131 48.0621 33.6299C47.9887 32.6635 48.1845 31.7213 48.2335 30.7549C48.2335 30.4892 48.2825 30.0302 48.2335 29.6436C48.1845 29.2812 47.3766 29.3054 47.1318 29.402C47.0338 29.7886 46.8135 30.4409 46.4218 30.4892V31.2623V32.1803V32.736C46.4218 33.6058 46.3728 35.0553 46.8624 35.7318L46.8135 35.7559ZM17.2626 36.7223C17.0912 36.7465 16.9443 36.8914 16.7974 37.133L15.9161 38.486C16.2099 39.1624 15.9405 40.0563 16.1364 40.7328C16.3323 41.3851 17.2137 41.82 17.1402 42.5206C17.385 42.5206 17.5075 42.7863 17.6543 42.883C17.8747 43.0038 18.1195 43.0763 18.193 43.3662C18.3399 43.3179 18.6337 43.342 18.7561 43.3662C18.854 42.9313 18.854 42.4723 18.7806 42.0374L18.7316 41.8925C18.4378 41.7958 18.144 41.5542 18.1195 41.2401L18.0706 40.612C17.9237 40.612 17.7523 40.612 17.6543 40.4187C17.5809 40.3221 17.7033 40.1771 17.7523 40.0805C17.7523 39.8631 17.7523 39.5731 17.8257 39.3557C16.7974 39.2108 18.5847 36.4566 17.2381 36.6982L17.2626 36.7223ZM35.8207 112.921C35.6003 112.921 35.2086 112.873 35.0372 112.97C34.8169 113.284 34.0089 113.525 33.8865 113.888L33.3479 115.337C33.0051 116.279 33.3724 117.801 34.0089 118.381C34.3027 118.405 34.4986 118.357 34.67 118.236C34.8903 118.067 34.8903 117.705 34.9882 117.536L35.1841 115.579L35.4289 114.854L35.8696 113.839C36.041 113.453 35.8696 113.187 35.7717 112.97L35.8207 112.921ZM24.1423 116.738C24.0689 116.545 23.8975 116.304 23.873 116.038V115.845C23.2365 115.579 23.1385 114.782 22.6978 114.371L21.9878 113.67H21.2289C21.033 113.67 20.9106 114.081 21.033 114.347L22.0123 116.714C22.3551 116.908 22.7713 117.27 22.7713 117.681C22.7713 118.309 23.212 118.647 23.6771 118.913C23.873 118.913 24.0689 118.913 24.3627 118.84L24.4361 117.512C24.2158 117.439 24.2158 116.956 24.1423 116.763V116.738ZM42.8228 115.53C42.9452 115.386 42.8962 114.782 42.6514 114.733L40.6193 114.371C40.4724 115.096 40.1052 115.555 39.2972 115.603L38.881 117.946C38.8321 118.285 39.0769 118.599 39.2728 118.695C39.5176 118.816 39.8359 118.792 40.0562 118.502C40.0562 118.357 40.0562 118.236 40.1296 118.116C40.2031 117.995 40.3745 117.898 40.5459 118.019V117.753C40.5214 117.439 40.4969 117.077 40.9621 117.004C41.1579 115.989 42.3821 116.038 42.7983 115.555L42.8228 115.53ZM44.1938 29.0879C43.9735 29.0879 43.7531 28.9913 43.5083 29.0396L43.2145 29.1121C43.0431 29.8127 42.7248 30.006 42.48 31.2623C42.8473 31.673 42.7738 32.2287 42.7493 32.736C42.7493 32.7843 42.7493 32.8568 42.7493 32.881C43.141 33.0742 43.2635 33.5091 43.1166 33.9682C43.3614 34.2822 43.2145 35.1761 43.9979 35.2728C44.3407 35.3211 44.659 34.4997 44.61 34.1373L44.3652 32.0112C44.3162 31.5764 44.0469 31.1657 44.1938 30.5375C44.2917 30.006 44.3652 29.5228 44.1938 29.0879ZM16.1119 43.487V43.0521C14.3492 41.6509 16.2099 38.9933 14.8633 39.1624C14.6185 39.1866 14.4716 39.3315 14.2512 39.6215L13.5167 40.5878C13.7371 41.3609 13.9574 42.2548 13.6881 42.9313C13.8595 42.9313 13.9819 42.9555 14.0798 43.0038C14.2267 43.0763 14.2023 43.2937 14.2757 43.4145L14.545 43.8735C14.6185 44.0668 14.8388 44.2359 15.0102 44.3084C15.304 44.3326 15.5733 44.4292 15.8916 44.5983C16.2343 44.2118 16.1364 43.8494 16.1119 43.4628V43.487ZM41.1824 29.1363C41.011 29.0396 40.5459 29.0638 40.3745 29.1363L40.1296 29.3537C40.1786 29.6678 39.7869 29.7402 39.6645 29.8852C39.0769 31.1173 39.6155 32.2045 39.6155 33.485L39.9093 34.0406C40.0317 34.3064 40.7172 34.2097 40.7662 33.799L41.0845 31.7455C41.1579 31.1898 40.9866 30.5617 41.3538 30.0543C41.2314 29.861 41.4028 29.2812 41.2069 29.1604L41.1824 29.1363ZM5.266 13.8916C4.89876 14.7372 5.1191 16.066 6.04945 16.4284C6.63704 16.67 6.56359 14.858 7.66532 13.9641C7.93464 13.7467 8.20395 13.0219 7.81222 12.8528C6.80842 12.3938 5.63324 13.0219 5.266 13.8916ZM10.6767 15.1963C10.4319 14.3265 9.40361 14.1816 8.71809 14.4715C7.66532 14.8822 7.49394 16.7183 8.17946 17.5639C9.25671 18.8926 8.88947 15.8969 10.6767 15.1963ZM18.1195 8.38329C18.4623 7.92426 18.4133 7.39275 18.1195 7.03036C17.7768 6.57133 17.3606 6.42637 16.675 6.47469L15.965 6.52301C15.4509 6.57133 15.3774 7.15116 15.0836 7.41691C14.9857 7.80346 14.9612 8.19001 14.9857 8.64904C16.4057 9.08391 16.2588 7.61019 18.1195 8.40745V8.38329ZM42.6514 12.7561L42.2352 12.6837C41.7945 12.6112 41.4028 12.3213 40.8641 12.4179V13.3601C41.2069 13.4809 41.4272 13.94 41.3783 14.2299C41.6476 14.3265 41.819 14.5198 41.8924 14.7614C41.9414 14.7614 41.9904 14.7855 42.0393 14.7614C42.2841 14.7614 42.6269 14.7614 42.7738 14.9788H43.239L44.0959 15.0271C44.3652 15.0271 44.5855 14.8097 44.4876 14.4715C44.2917 13.8433 43.6307 13.6259 43.2145 13.191C43.0921 13.0461 42.7004 13.0219 42.6759 12.732L42.6514 12.7561ZM8.93843 34.1373C7.39601 34.9345 7.76326 35.9734 7.76326 37.2538V37.6645C7.76326 37.6645 8.00808 37.6887 8.08153 37.7612C8.20395 37.882 8.25291 38.0511 8.22843 38.2202C8.42429 38.2685 8.57119 38.5343 8.66912 38.7034C10.1871 38.6551 8.71809 37.2297 9.45258 34.6205C9.50154 34.4513 9.1343 34.0406 8.93843 34.1373ZM14.7164 17.2498C13.9085 17.5397 13.5902 18.3611 13.884 19.2309C14.0064 19.6416 14.2023 19.859 14.4471 19.9798C14.6674 20.1006 15.3774 19.9798 15.3774 19.7624C15.3774 19.0134 16.2099 18.7477 16.3568 18.337C16.724 17.3223 15.4019 16.9841 14.7164 17.2256V17.2498ZM46.3973 9.32551C46.8625 9.59126 46.9359 10.1469 46.9359 10.6301L47.3521 10.7026C47.6704 10.7751 48.0866 10.7026 48.3314 10.9925C48.5518 10.8959 49.0414 10.9442 49.2618 11.0408C49.4332 10.8234 49.6535 10.606 49.7025 10.3644C49.7514 10.1228 49.5801 9.85702 49.4087 9.6879L48.8211 9.34967C48.5763 9.20471 48.2825 9.20471 48.258 8.86648L46.8624 8.38329C46.7156 8.38329 46.4952 8.52824 46.3483 8.60072C46.4462 8.794 46.3728 9.13223 46.3728 9.34967L46.3973 9.32551ZM11.754 15.7278C11.3622 16.0177 10.8971 17.1532 11.3378 17.8055C12.0967 18.941 12.5129 17.1049 13.835 16.525C14.2023 16.3801 14.2512 15.9694 14.1043 15.7519C13.884 15.462 12.2436 15.3654 11.7295 15.7278H11.754ZM24.0444 8.40745C24.2402 7.85178 24.1668 7.22363 24.1668 6.69213V5.94318C24.1668 5.74991 24.2402 5.45999 24.0689 5.26672C23.9709 5.14592 23.6771 5.12176 23.4813 5.17008L23.212 5.07344C23.163 5.31504 22.9671 5.48415 22.7468 5.55663L22.6244 5.60495C22.3306 6.16062 22.2816 6.74045 22.5264 7.27195C22.8202 7.87594 23.0651 8.47993 24.0689 8.43161L24.0444 8.40745ZM11.0929 26.9861C11.0195 26.3338 11.7295 25.9714 12.0233 25.4882C12.3171 24.9567 11.3867 24.6668 10.995 24.6184C10.5298 24.546 9.96672 24.7876 9.74637 25.3191C9.50154 25.9472 9.55051 26.9861 10.1136 27.3726L10.7012 27.4693C10.8236 27.3485 11.1174 27.2277 11.0929 26.9861ZM7.61636 25.6815C7.91015 25.4399 7.86119 24.86 7.95912 24.5943C8.03257 24.401 8.25291 24.2077 8.35085 24.0869C8.52223 23.8695 8.42429 23.4105 8.10602 23.2897C7.59187 23.0722 7.00429 23.1689 6.53911 23.193C6.09842 23.6279 5.976 24.256 6.09842 24.8359C6.24532 24.9325 6.34325 25.1258 6.36773 25.3191C6.58808 25.5848 7.22463 26.0197 7.61636 25.6815ZM36.0165 116.738C35.6003 117.705 36.041 118.478 36.5062 119.348H36.751H37.2162C37.2896 119.323 37.3876 119.203 37.4365 119.154C37.4365 118.55 37.2652 117.753 37.8283 117.367C37.8283 117.246 37.8283 117.101 37.8772 116.98L37.9507 116.424C37.3876 116.062 36.5307 116.352 36.0165 116.738ZM41.06 117.946L41.109 118.864C41.2314 119.009 41.3293 119.179 41.4028 119.348C41.4762 119.638 41.7455 119.976 41.9904 120C42.48 120.048 42.5779 119.565 42.8228 119.154L43.5083 117.922C42.7004 117.656 41.9904 117.729 41.2803 117.681L41.06 117.922V117.946ZM19.515 11.0408C19.7354 11.0408 19.9068 10.9925 20.1026 11.1133V10.5576C20.1271 9.97781 19.8088 9.34967 19.2213 9.27719C19.0254 9.27719 18.854 9.27719 18.6581 9.32551C18.5112 9.34967 18.3644 9.49462 18.193 9.5671C17.8992 9.73622 17.8012 10.0986 17.6299 10.4368C17.7033 10.8234 17.8012 11.1375 17.8257 11.4515C18.4378 11.5723 18.8295 11.3066 19.4906 11.0408H19.515ZM16.2833 5.58079C16.773 5.0976 16.4302 3.91379 15.6957 3.91379C15.4264 3.91379 14.9612 4.49362 14.6185 4.3245L14.5205 4.75937C14.4961 5.07344 14.5205 5.38752 14.5205 5.74991C14.8633 5.9915 15.2061 6.20894 15.6712 6.16062C15.6223 5.79823 16.1119 5.74991 16.2833 5.58079ZM16.9933 21.3811C17.5075 21.4536 18.3399 20.8496 18.2175 20.2697C18.144 19.8349 17.6054 19.3034 17.2871 19.2067C16.7974 19.0618 16.2833 19.7866 16.2588 20.1731C16.2588 20.6321 16.3812 21.2603 16.9933 21.3811ZM14.6674 3.21317C14.8878 3.33396 15.2305 3.59972 15.3774 3.50308C15.6712 3.33396 15.8181 2.68166 15.5243 2.34342C15.1081 1.83608 14.3247 2.22263 13.835 2.17431L13.0516 2.10183L12.8312 2.58502C12.8312 2.94741 12.9536 3.3098 13.2719 3.50308L14.6674 3.18901V3.21317ZM16.2099 2.34342C16.6995 2.60918 17.1892 2.19847 17.2137 1.78776C17.2137 1.40121 16.8464 1.18377 16.3812 0.169074C16.3078 -4.22624e-05 15.8916 -0.0483612 15.6957 0.0482766L15.5243 0.241552C15.5243 0.434828 15.4264 0.628103 15.2305 0.700582V1.42537C15.5978 1.59448 15.8426 2.12599 16.2099 2.34342ZM19.8088 15.5103V16.6941C20.0292 16.9841 20.3475 17.2498 20.8861 17.4672C21.0085 17.0082 21.5471 16.5492 21.792 16.1626C21.694 15.3654 20.4209 15.0996 19.8333 15.4862L19.8088 15.5103ZM16.1609 27.3485C16.063 27.0102 15.7692 26.6962 15.1571 26.6962L15.0347 27.6867C15.3774 27.88 15.6468 28.194 15.965 28.4115C16.1854 28.0974 16.2833 27.7109 16.1854 27.3485H16.1609ZM21.8164 24.5943C22.1837 24.4493 22.0123 23.3621 21.6206 23.2172C21.4492 23.1447 21.2778 23.1689 21.1064 23.193C21.033 23.193 21.0085 23.2655 21.033 23.3622V23.942C21.033 24.2077 21.3023 24.8359 21.8164 24.6184V24.5943ZM8.66912 50.1308C7.88567 48.4638 9.67292 46.8451 7.9836 46.1928C8.64464 44.1151 10.334 42.424 11.7295 40.7086C12.5129 39.7423 13.2719 39.0658 14.1043 38.2444C15.5978 36.7948 16.9933 35.2486 19.1968 35.152C19.2457 35.8767 18.5112 36.1183 18.3644 36.4566C17.9481 37.4954 18.4133 38.486 18.6337 39.3799C18.805 40.008 19.2947 40.7086 20.1026 40.6845C20.6902 40.6845 20.7147 40.9986 20.9106 41.2643C21.082 41.4817 21.5471 41.6025 21.5471 42.0616C21.7185 41.9649 22.0858 41.9649 22.3061 41.9891C22.5754 41.9891 22.8202 42.0374 23.0651 41.9891C23.4078 41.9166 23.6037 41.5542 23.4813 41.216C23.3099 40.7328 22.6733 40.9261 22.3795 40.4187C21.9389 39.6456 22.7713 39.9839 24.6075 40.0322L24.2647 42.2548L24.2158 44.3809C24.2158 44.8882 24.0934 45.4197 23.7506 45.8546V46.7727C23.7261 47.4491 23.7751 48.0773 23.5547 48.7296C23.4078 49.1403 23.3833 49.696 23.2854 50.1308L22.5264 53.4648L22.404 57.7169C22.3795 58.8041 21.7185 59.7221 21.9389 60.8818C22.2082 62.4038 22.0613 63.9259 21.9633 65.4721C21.8409 67.7672 22.0368 69.9657 21.694 72.2367L21.5716 76.1989C21.4982 78.9047 21.4492 81.4173 21.8899 84.0748C22.0613 85.162 21.8899 86.3217 22.0123 87.4089L22.3061 90.2597C22.502 92.1683 22.4775 93.9561 22.6489 95.8405C23.1385 101.252 23.7261 107.171 25.8316 111.786C25.9296 111.786 26.0275 111.786 26.1009 111.907C26.1009 111.762 26.2723 111.665 26.3947 111.858L26.1254 111.617C26.1744 110.699 25.7827 109.877 25.6603 108.887L25.342 106.543C25.0972 106.374 25.1461 106.06 25.1216 105.794L25.0237 103.016C24.6809 101.76 24.6565 100.672 24.583 99.3436C24.4851 97.4592 23.9709 95.454 24.1913 93.6662C23.873 93.3279 23.9709 92.8447 23.922 92.434L23.7506 90.7429L23.5792 80.765L23.4323 77.8659C23.3589 76.4405 23.3099 75.0151 23.4323 73.5897C23.4813 72.9857 23.4323 72.4542 23.6037 71.8743C23.7996 71.3187 23.6771 70.5939 23.6771 70.0141V68.8061V67.8397V67.1632V64.5057C23.6771 63.4668 23.824 62.5488 23.8975 61.6307L24.0934 58.5142L24.1913 56.8472L24.4606 53.9963C24.6075 52.4501 24.583 51.0006 24.7299 49.4544C24.9747 46.676 25.7827 43.7769 25.5623 41.3368C25.3665 39.09 26.3213 37.6887 25.8561 37.1572C25.7582 37.0364 25.3909 36.9881 25.2685 37.0606C24.8768 37.278 25.3175 38.1719 24.7789 38.486C24.4361 38.6792 23.7996 38.5101 23.9709 38.1236C24.0934 37.8095 24.2892 37.3988 24.1668 37.2055C23.7016 36.4083 22.3306 38.2444 21.6451 37.6645C21.2533 37.3263 21.7675 36.3116 21.7675 35.9734C21.3023 35.611 20.6657 35.9734 20.2985 36.3599C20.0292 36.0942 20.0047 35.8043 20.0782 35.2486L22.9427 35.0312C22.5509 33.7507 20.7637 34.1373 18.6826 33.8957C18.5357 33.8957 18.5847 33.2192 18.7561 33.195C19.0254 33.1709 19.3682 33.5333 20.2006 33.5091C20.4699 33.5091 20.7637 33.2192 20.5188 32.7119L19.1723 32.5911C18.3154 32.1803 17.6054 32.1079 16.8464 32.7119L17.2871 33.7507C16.7974 33.9682 16.4302 34.1131 15.9161 34.5238C15.7692 33.8957 15.4754 33.7024 14.8878 33.5333C14.643 33.4608 14.3981 32.9776 14.1778 32.9776C13.8595 32.9776 13.5167 33.1226 13.174 33.4608C12.415 33.0018 11.2643 32.6394 10.5543 33.2675C10.0157 33.7507 9.8443 35.7076 10.7991 35.8284C11.2888 35.9009 11.5581 35.5868 11.5091 35.0312C11.5091 34.7171 11.6316 34.5238 11.7785 34.4272C12.5129 33.944 12.2436 35.2244 12.7088 35.611C12.9047 35.7801 13.5167 35.9009 13.6881 35.5144C13.8105 35.2728 13.835 34.9828 13.9574 34.8621C14.1288 34.6688 14.8878 35.007 14.643 35.4419C14.2023 36.2391 13.1985 37.1572 12.366 37.7129C11.8519 37.6645 10.995 37.2297 10.5788 37.737C10.1626 38.2444 9.9912 38.9692 10.236 39.5973L10.1871 40.153C10.1871 40.2979 10.1626 40.4912 10.0891 40.612C9.96672 40.8294 9.6974 40.8778 9.47706 40.7086C9.33016 40.612 9.25671 40.3946 9.15878 40.2254C9.03637 40.1046 8.64464 40.0563 8.49774 39.7664C8.32636 40.2979 7.64084 40.3946 7.2736 40.7811C6.9798 41.071 6.90635 41.675 6.51463 41.7717L6.58808 42.279C6.58808 42.279 6.61256 42.5206 6.58808 42.5931C6.46566 42.7622 6.2698 42.738 6.09842 42.7622L5.70669 42.8105C5.60876 43.2212 5.31496 43.5353 4.92324 43.7044L4.82531 44.8641C5.04565 45.0332 5.29048 45.1781 5.51083 45.1781C6.09842 45.154 6.58808 43.8494 7.00429 44.2842C7.29808 44.5983 6.95532 45.4922 6.56359 45.5647V46.0962C6.56359 46.4586 6.4167 46.8451 6.07394 47.0384C6.17187 47.2317 6.09842 47.5699 6.1229 47.7632C6.07393 47.9323 6.07393 48.1739 6.14738 48.2947C6.2698 48.4638 6.75946 48.488 6.9798 48.5846C7.05325 49.3094 6.75946 50.2275 7.02877 50.8798C7.1267 50.8798 7.2736 50.9522 7.32256 51.0247C7.44498 51.1697 7.37153 51.3871 7.39601 51.5321C8.08153 52.0153 8.69361 52.6192 9.74637 52.5226C9.6974 51.9186 9.37913 51.5562 9.18326 51.1697L8.69361 50.155L8.66912 50.1308ZM21.1799 38.8725C21.3513 38.8967 21.5961 38.6309 21.9878 38.486C22.2571 38.3893 22.404 38.8242 22.2571 39.0175C22.3061 38.9692 20.7147 40.0563 20.3719 39.7423C19.9802 39.404 19.9068 38.5826 19.6375 38.0028C20.4454 37.6404 20.6902 38.8 21.2044 38.8725H21.1799ZM7.29808 43.2937C7.15118 42.9313 8.1305 41.1193 9.25671 41.6025L7.95912 43.2937C7.76326 43.5353 7.37153 43.4145 7.32256 43.2937H7.29808ZM28.231 36.8673C28.4758 36.7706 29.0389 36.3599 28.9165 35.9734C28.7206 35.3694 27.8392 35.1761 27.3251 35.3452C26.8599 35.4902 26.6641 36.2875 26.9579 36.5532C27.3251 36.8673 27.9127 37.0122 28.231 36.8673ZM35.7227 18.5303C35.1107 19.2067 35.331 19.9073 35.6003 20.7529C36.3348 21.1395 37.2407 21.3328 38.1955 21.2361C38.4159 20.1248 36.751 19.7624 35.7227 18.5061V18.5303Z" fill="#183930"/>
</g>
<defs>
<clipPath id="clip0_112_1752">
<rect width="58" height="120" fill="white"/>
</clipPath>
</defs>
</svg>
